<mxfile host="65bd71144e">
    <diagram id="Zt90DALHWpi99J9hbp-p" name="arch">
        <mxGraphModel dx="1890" dy="1437" grid="1" gridSize="10" guides="1" tooltips="1" connect="1" arrows="1" fold="1" page="1" pageScale="1" pageWidth="827" pageHeight="1169" math="0" shadow="0">
            <root>
                <mxCell id="4Gn72HVbANgUFPShchLW-0"/>
                <mxCell id="4Gn72HVbANgUFPShchLW-1" parent="4Gn72HVbANgUFPShchLW-0"/>
                <mxCell id="E98peOS8R5E9caiYQaB1-0" value="Viewer" style="rounded=0;whiteSpace=wrap;html=1;" parent="4Gn72HVbANgUFPShchLW-1" vertex="1">
                    <mxGeometry x="190" y="135" width="160" height="80" as="geometry"/>
                </mxCell>
                <mxCell id="E98peOS8R5E9caiYQaB1-1" value="" style="rounded=0;whiteSpace=wrap;html=1;" parent="4Gn72HVbANgUFPShchLW-1" vertex="1">
                    <mxGeometry x="530" y="40" width="1540" height="1140" as="geometry"/>
                </mxCell>
                <mxCell id="E98peOS8R5E9caiYQaB1-6" value="API GW" style="rounded=0;whiteSpace=wrap;html=1;" parent="4Gn72HVbANgUFPShchLW-1" vertex="1">
                    <mxGeometry x="560" y="80" width="146" height="890" as="geometry"/>
                </mxCell>
                <mxCell id="E98peOS8R5E9caiYQaB1-7" value="" style="rounded=0;whiteSpace=wrap;html=1;" parent="4Gn72HVbANgUFPShchLW-1" vertex="1">
                    <mxGeometry x="790" y="70" width="940" height="210" as="geometry"/>
                </mxCell>
                <mxCell id="E98peOS8R5E9caiYQaB1-9" value="User DB" style="shape=cylinder3;whiteSpace=wrap;html=1;boundedLbl=1;backgroundOutline=1;size=15;" parent="4Gn72HVbANgUFPShchLW-1" vertex="1">
                    <mxGeometry x="1550" y="110" width="140" height="130" as="geometry"/>
                </mxCell>
                <mxCell id="E98peOS8R5E9caiYQaB1-10" value="Auth Server" style="rounded=0;whiteSpace=wrap;html=1;" parent="4Gn72HVbANgUFPShchLW-1" vertex="1">
                    <mxGeometry x="827" y="122.5" width="210" height="105" as="geometry"/>
                </mxCell>
                <mxCell id="E98peOS8R5E9caiYQaB1-13" value="Session DB" style="shape=cylinder3;whiteSpace=wrap;html=1;boundedLbl=1;backgroundOutline=1;size=15;" parent="4Gn72HVbANgUFPShchLW-1" vertex="1">
                    <mxGeometry x="1870" y="545" width="140" height="130" as="geometry"/>
                </mxCell>
                <mxCell id="E98peOS8R5E9caiYQaB1-16" value="" style="rounded=0;whiteSpace=wrap;html=1;" parent="4Gn72HVbANgUFPShchLW-1" vertex="1">
                    <mxGeometry x="790" y="400" width="940" height="210" as="geometry"/>
                </mxCell>
                <mxCell id="E98peOS8R5E9caiYQaB1-17" value="media server" style="rounded=0;whiteSpace=wrap;html=1;" parent="4Gn72HVbANgUFPShchLW-1" vertex="1">
                    <mxGeometry x="827" y="452.5" width="210" height="105" as="geometry"/>
                </mxCell>
                <mxCell id="E98peOS8R5E9caiYQaB1-18" value="Broadcaster" style="rounded=0;whiteSpace=wrap;html=1;" parent="4Gn72HVbANgUFPShchLW-1" vertex="1">
                    <mxGeometry x="190" y="815" width="160" height="80" as="geometry"/>
                </mxCell>
                <mxCell id="0" value="Media&amp;nbsp;DB" style="shape=cylinder3;whiteSpace=wrap;html=1;boundedLbl=1;backgroundOutline=1;size=15;" parent="4Gn72HVbANgUFPShchLW-1" vertex="1">
                    <mxGeometry x="1550" y="440" width="140" height="130" as="geometry"/>
                </mxCell>
            </root>
        </mxGraphModel>
    </diagram>
    <diagram id="07Gc1QsYJXJHNMZGSDI1" name="Login">
        <mxGraphModel dx="1134" dy="862" grid="1" gridSize="10" guides="1" tooltips="1" connect="1" arrows="1" fold="1" page="1" pageScale="1" pageWidth="827" pageHeight="1169" math="0" shadow="0">
            <root>
                <mxCell id="0"/>
                <mxCell id="1" parent="0"/>
                <mxCell id="2" value="client" style="rounded=0;whiteSpace=wrap;html=1;" parent="1" vertex="1">
                    <mxGeometry x="30" y="230" width="120" height="60" as="geometry"/>
                </mxCell>
                <mxCell id="7" value="" style="rounded=0;whiteSpace=wrap;html=1;" parent="1" vertex="1">
                    <mxGeometry x="210" y="80" width="470" height="390" as="geometry"/>
                </mxCell>
                <mxCell id="8" value="" style="rounded=0;whiteSpace=wrap;html=1;" parent="1" vertex="1">
                    <mxGeometry x="260" y="230" width="120" height="60" as="geometry"/>
                </mxCell>
                <mxCell id="9" value="User DB" style="rounded=0;whiteSpace=wrap;html=1;" parent="1" vertex="1">
                    <mxGeometry x="510" y="160" width="120" height="60" as="geometry"/>
                </mxCell>
                <mxCell id="10" value="Session DB" style="rounded=0;whiteSpace=wrap;html=1;" parent="1" vertex="1">
                    <mxGeometry x="510" y="320" width="120" height="60" as="geometry"/>
                </mxCell>
            </root>
        </mxGraphModel>
    </diagram>
    <diagram id="y4BY338z4fzVLVACMB7P" name="Page-3">
        <mxGraphModel dx="1434" dy="862" grid="1" gridSize="10" guides="1" tooltips="1" connect="1" arrows="1" fold="1" page="1" pageScale="1" pageWidth="827" pageHeight="1169" math="0" shadow="0">
            <root>
                <mxCell id="0"/>
                <mxCell id="1" parent="0"/>
                <mxCell id="v29pUzt2zPk5RfjAF8Uz-6" value="" style="rounded=0;whiteSpace=wrap;html=1;" vertex="1" parent="1">
                    <mxGeometry x="280" y="120" width="850" height="430" as="geometry"/>
                </mxCell>
                <mxCell id="v29pUzt2zPk5RfjAF8Uz-33" value="" style="rounded=0;whiteSpace=wrap;html=1;" vertex="1" parent="1">
                    <mxGeometry x="870" y="140" width="240" height="230" as="geometry"/>
                </mxCell>
                <mxCell id="v29pUzt2zPk5RfjAF8Uz-22" value="" style="endArrow=none;html=1;exitX=1;exitY=0.5;exitDx=0;exitDy=0;" edge="1" parent="1" source="v29pUzt2zPk5RfjAF8Uz-19" target="v29pUzt2zPk5RfjAF8Uz-23">
                    <mxGeometry width="50" height="50" relative="1" as="geometry">
                        <mxPoint x="760" y="449" as="sourcePoint"/>
                        <mxPoint x="860" y="449" as="targetPoint"/>
                    </mxGeometry>
                </mxCell>
                <mxCell id="v29pUzt2zPk5RfjAF8Uz-1" value="streamer" style="rounded=1;whiteSpace=wrap;html=1;" vertex="1" parent="1">
                    <mxGeometry x="90" y="200" width="120" height="60" as="geometry"/>
                </mxCell>
                <mxCell id="v29pUzt2zPk5RfjAF8Uz-2" value="viewer" style="rounded=1;whiteSpace=wrap;html=1;" vertex="1" parent="1">
                    <mxGeometry x="80" y="420" width="120" height="60" as="geometry"/>
                </mxCell>
                <mxCell id="v29pUzt2zPk5RfjAF8Uz-3" value="loadbalancer" style="rounded=1;whiteSpace=wrap;html=1;" vertex="1" parent="1">
                    <mxGeometry x="340" y="290" width="120" height="60" as="geometry"/>
                </mxCell>
                <mxCell id="v29pUzt2zPk5RfjAF8Uz-4" value="api server" style="rounded=1;whiteSpace=wrap;html=1;" vertex="1" parent="1">
                    <mxGeometry x="560" y="290" width="120" height="60" as="geometry"/>
                </mxCell>
                <mxCell id="v29pUzt2zPk5RfjAF8Uz-5" value="video transcoding server" style="rounded=1;whiteSpace=wrap;html=1;" vertex="1" parent="1">
                    <mxGeometry x="340" y="430" width="120" height="60" as="geometry"/>
                </mxCell>
                <mxCell id="v29pUzt2zPk5RfjAF8Uz-12" value="" style="endArrow=none;dashed=1;html=1;dashPattern=1 3;strokeWidth=2;exitX=1;exitY=0.5;exitDx=0;exitDy=0;entryX=-0.017;entryY=0.4;entryDx=0;entryDy=0;entryPerimeter=0;" edge="1" parent="1" source="v29pUzt2zPk5RfjAF8Uz-1" target="v29pUzt2zPk5RfjAF8Uz-3">
                    <mxGeometry width="50" height="50" relative="1" as="geometry">
                        <mxPoint x="540" y="470" as="sourcePoint"/>
                        <mxPoint x="590" y="420" as="targetPoint"/>
                    </mxGeometry>
                </mxCell>
                <mxCell id="v29pUzt2zPk5RfjAF8Uz-13" value="" style="endArrow=none;html=1;exitX=1;exitY=0.5;exitDx=0;exitDy=0;entryX=0;entryY=0.75;entryDx=0;entryDy=0;" edge="1" parent="1" source="v29pUzt2zPk5RfjAF8Uz-2" target="v29pUzt2zPk5RfjAF8Uz-3">
                    <mxGeometry width="50" height="50" relative="1" as="geometry">
                        <mxPoint x="540" y="470" as="sourcePoint"/>
                        <mxPoint x="590" y="420" as="targetPoint"/>
                    </mxGeometry>
                </mxCell>
                <mxCell id="v29pUzt2zPk5RfjAF8Uz-14" value="" style="endArrow=none;html=1;exitX=1;exitY=0.75;exitDx=0;exitDy=0;entryX=0;entryY=0.75;entryDx=0;entryDy=0;" edge="1" parent="1" source="v29pUzt2zPk5RfjAF8Uz-3" target="v29pUzt2zPk5RfjAF8Uz-4">
                    <mxGeometry width="50" height="50" relative="1" as="geometry">
                        <mxPoint x="220" y="430" as="sourcePoint"/>
                        <mxPoint x="350" y="345" as="targetPoint"/>
                    </mxGeometry>
                </mxCell>
                <mxCell id="v29pUzt2zPk5RfjAF8Uz-16" value="" style="endArrow=none;dashed=1;html=1;dashPattern=1 3;strokeWidth=2;exitX=1;exitY=0.25;exitDx=0;exitDy=0;entryX=0;entryY=0.25;entryDx=0;entryDy=0;" edge="1" parent="1" source="v29pUzt2zPk5RfjAF8Uz-3" target="v29pUzt2zPk5RfjAF8Uz-4">
                    <mxGeometry width="50" height="50" relative="1" as="geometry">
                        <mxPoint x="220" y="240" as="sourcePoint"/>
                        <mxPoint x="347.96000000000004" y="324" as="targetPoint"/>
                    </mxGeometry>
                </mxCell>
                <mxCell id="v29pUzt2zPk5RfjAF8Uz-17" value="" style="endArrow=none;html=1;exitX=1;exitY=0.65;exitDx=0;exitDy=0;entryX=0;entryY=0.5;entryDx=0;entryDy=0;exitPerimeter=0;" edge="1" parent="1" source="v29pUzt2zPk5RfjAF8Uz-2" target="v29pUzt2zPk5RfjAF8Uz-5">
                    <mxGeometry width="50" height="50" relative="1" as="geometry">
                        <mxPoint x="220" y="430" as="sourcePoint"/>
                        <mxPoint x="350" y="345" as="targetPoint"/>
                    </mxGeometry>
                </mxCell>
                <mxCell id="v29pUzt2zPk5RfjAF8Uz-18" value="video transcoding worker server" style="rounded=1;whiteSpace=wrap;html=1;" vertex="1" parent="1">
                    <mxGeometry x="550" y="410" width="120" height="60" as="geometry"/>
                </mxCell>
                <mxCell id="v29pUzt2zPk5RfjAF8Uz-19" value="video transcoding worker server" style="rounded=1;whiteSpace=wrap;html=1;" vertex="1" parent="1">
                    <mxGeometry x="560" y="430" width="120" height="60" as="geometry"/>
                </mxCell>
                <mxCell id="v29pUzt2zPk5RfjAF8Uz-20" value="video transcoding worker server" style="rounded=1;whiteSpace=wrap;html=1;" vertex="1" parent="1">
                    <mxGeometry x="570" y="450" width="120" height="60" as="geometry"/>
                </mxCell>
                <mxCell id="v29pUzt2zPk5RfjAF8Uz-21" value="" style="endArrow=none;html=1;exitX=1;exitY=0.5;exitDx=0;exitDy=0;entryX=0;entryY=0.5;entryDx=0;entryDy=0;" edge="1" parent="1" source="v29pUzt2zPk5RfjAF8Uz-5" target="v29pUzt2zPk5RfjAF8Uz-19">
                    <mxGeometry width="50" height="50" relative="1" as="geometry">
                        <mxPoint x="220" y="439" as="sourcePoint"/>
                        <mxPoint x="350" y="470" as="targetPoint"/>
                    </mxGeometry>
                </mxCell>
                <mxCell id="v29pUzt2zPk5RfjAF8Uz-23" value="queue" style="rounded=1;whiteSpace=wrap;html=1;" vertex="1" parent="1">
                    <mxGeometry x="750" y="430" width="120" height="60" as="geometry"/>
                </mxCell>
                <mxCell id="v29pUzt2zPk5RfjAF8Uz-25" value="MetaData DB" style="shape=cylinder3;whiteSpace=wrap;html=1;boundedLbl=1;backgroundOutline=1;size=15;" vertex="1" parent="1">
                    <mxGeometry x="940" y="260" width="90" height="100" as="geometry"/>
                </mxCell>
                <mxCell id="v29pUzt2zPk5RfjAF8Uz-26" value="video transcoding&lt;br&gt;handler server" style="rounded=1;whiteSpace=wrap;html=1;" vertex="1" parent="1">
                    <mxGeometry x="925" y="430" width="120" height="60" as="geometry"/>
                </mxCell>
                <mxCell id="v29pUzt2zPk5RfjAF8Uz-27" value="" style="endArrow=none;html=1;exitX=1;exitY=0.5;exitDx=0;exitDy=0;entryX=0;entryY=0.5;entryDx=0;entryDy=0;" edge="1" parent="1" source="v29pUzt2zPk5RfjAF8Uz-23" target="v29pUzt2zPk5RfjAF8Uz-26">
                    <mxGeometry width="50" height="50" relative="1" as="geometry">
                        <mxPoint x="690" y="470" as="sourcePoint"/>
                        <mxPoint x="760" y="470" as="targetPoint"/>
                    </mxGeometry>
                </mxCell>
                <mxCell id="v29pUzt2zPk5RfjAF8Uz-29" value="" style="endArrow=none;html=1;exitX=0.992;exitY=0.637;exitDx=0;exitDy=0;exitPerimeter=0;entryX=0;entryY=0.819;entryDx=0;entryDy=0;entryPerimeter=0;" edge="1" parent="1" source="v29pUzt2zPk5RfjAF8Uz-4" target="v29pUzt2zPk5RfjAF8Uz-33">
                    <mxGeometry width="50" height="50" relative="1" as="geometry">
                        <mxPoint x="680" y="328" as="sourcePoint"/>
                        <mxPoint x="870" y="330" as="targetPoint"/>
                    </mxGeometry>
                </mxCell>
                <mxCell id="v29pUzt2zPk5RfjAF8Uz-30" value="" style="endArrow=none;html=1;entryX=0.5;entryY=1;entryDx=0;entryDy=0;entryPerimeter=0;exitX=0.5;exitY=0;exitDx=0;exitDy=0;" edge="1" parent="1" source="v29pUzt2zPk5RfjAF8Uz-26" target="v29pUzt2zPk5RfjAF8Uz-25">
                    <mxGeometry width="50" height="50" relative="1" as="geometry">
                        <mxPoint x="690" y="330" as="sourcePoint"/>
                        <mxPoint x="820" y="330" as="targetPoint"/>
                    </mxGeometry>
                </mxCell>
                <mxCell id="v29pUzt2zPk5RfjAF8Uz-31" value="" style="endArrow=none;dashed=1;html=1;dashPattern=1 3;strokeWidth=2;exitX=1;exitY=0.25;exitDx=0;exitDy=0;" edge="1" parent="1" source="v29pUzt2zPk5RfjAF8Uz-4">
                    <mxGeometry width="50" height="50" relative="1" as="geometry">
                        <mxPoint x="470" y="315" as="sourcePoint"/>
                        <mxPoint x="870" y="305" as="targetPoint"/>
                    </mxGeometry>
                </mxCell>
                <mxCell id="v29pUzt2zPk5RfjAF8Uz-32" value="User DB" style="shape=cylinder3;whiteSpace=wrap;html=1;boundedLbl=1;backgroundOutline=1;size=15;" vertex="1" parent="1">
                    <mxGeometry x="940" y="150" width="90" height="100" as="geometry"/>
                </mxCell>
            </root>
        </mxGraphModel>
    </diagram>
</mxfile>